<?xml version="1.0" encoding="UTF-8" standalone="no"?><svg xmlns="http://www.w3.org/2000/svg" xmlns:xlink="http://www.w3.org/1999/xlink" contentScriptType="application/ecmascript" contentStyleType="text/css" height="287px" preserveAspectRatio="none" style="width:480px;height:287px;" version="1.1" viewBox="0 0 480 287" width="480px" zoomAndPan="magnify"><defs><filter height="300%" id="f4vlwym" width="300%" x="-1" y="-1"><feGaussianBlur result="blurOut" stdDeviation="2.0"/><feColorMatrix in="blurOut" result="blurOut2" type="matrix" values="0 0 0 0 0 0 0 0 0 0 0 0 0 0 0 0 0 0 .4 0"/><feOffset dx="4.0" dy="4.0" in="blurOut2" result="blurOut3"/><feBlend in="SourceGraphic" in2="blurOut3" mode="normal"/></filter></defs><g><text fill="#000000" font-family="sans-serif" font-size="14" font-weight="bold" lengthAdjust="spacingAndGlyphs" textLength="295" x="94.25" y="23.5352">Configuration is reloaded on every event</text><rect fill="#FFFFFF" filter="url(#f4vlwym)" height="130.2422" style="stroke: #A80036; stroke-width: 1.0;" width="10" x="185.5" y="99.9766"/><rect fill="#FFFFFF" filter="url(#f4vlwym)" height="29.3105" style="stroke: #A80036; stroke-width: 1.0;" width="10" x="413.5" y="129.2871"/><line style="stroke: #A80036; stroke-width: 1.0; stroke-dasharray: 5.0,5.0;" x1="60" x2="60" y1="68.9766" y2="248.5293"/><line style="stroke: #A80036; stroke-width: 1.0; stroke-dasharray: 5.0,5.0;" x1="190" x2="190" y1="68.9766" y2="248.5293"/><line style="stroke: #A80036; stroke-width: 1.0; stroke-dasharray: 5.0,5.0;" x1="418.5" x2="418.5" y1="68.9766" y2="248.5293"/><rect fill="#FEFECE" filter="url(#f4vlwym)" height="30.4883" style="stroke: #A80036; stroke-width: 1.5;" width="101" x="8" y="33.4883"/><text fill="#000000" font-family="sans-serif" font-size="14" lengthAdjust="spacingAndGlyphs" textLength="87" x="15" y="54.0234">Environment</text><rect fill="#FEFECE" filter="url(#f4vlwym)" height="30.4883" style="stroke: #A80036; stroke-width: 1.5;" width="101" x="8" y="247.5293"/><text fill="#000000" font-family="sans-serif" font-size="14" lengthAdjust="spacingAndGlyphs" textLength="87" x="15" y="268.0645">Environment</text><rect fill="#FEFECE" filter="url(#f4vlwym)" height="30.4883" style="stroke: #A80036; stroke-width: 1.5;" width="81" x="148" y="33.4883"/><text fill="#000000" font-family="sans-serif" font-size="14" lengthAdjust="spacingAndGlyphs" textLength="67" x="155" y="54.0234">Processor</text><rect fill="#FEFECE" filter="url(#f4vlwym)" height="30.4883" style="stroke: #A80036; stroke-width: 1.5;" width="81" x="148" y="247.5293"/><text fill="#000000" font-family="sans-serif" font-size="14" lengthAdjust="spacingAndGlyphs" textLength="67" x="155" y="268.0645">Processor</text><rect fill="#FEFECE" filter="url(#f4vlwym)" height="30.4883" style="stroke: #A80036; stroke-width: 1.5;" width="110" x="361.5" y="33.4883"/><text fill="#000000" font-family="sans-serif" font-size="14" lengthAdjust="spacingAndGlyphs" textLength="96" x="368.5" y="54.0234">Configuration</text><rect fill="#FEFECE" filter="url(#f4vlwym)" height="30.4883" style="stroke: #A80036; stroke-width: 1.5;" width="110" x="361.5" y="247.5293"/><text fill="#000000" font-family="sans-serif" font-size="14" lengthAdjust="spacingAndGlyphs" textLength="96" x="368.5" y="268.0645">Configuration</text><rect fill="#FFFFFF" filter="url(#f4vlwym)" height="130.2422" style="stroke: #A80036; stroke-width: 1.0;" width="10" x="185.5" y="99.9766"/><rect fill="#FFFFFF" filter="url(#f4vlwym)" height="29.3105" style="stroke: #A80036; stroke-width: 1.0;" width="10" x="413.5" y="129.2871"/><polygon fill="#A80036" points="173.5,95.9766,183.5,99.9766,173.5,103.9766,177.5,99.9766" style="stroke: #A80036; stroke-width: 1.0;"/><line style="stroke: #A80036; stroke-width: 1.0;" x1="60.5" x2="179.5" y1="99.9766" y2="99.9766"/><text fill="#000000" font-family="sans-serif" font-size="13" lengthAdjust="spacingAndGlyphs" textLength="65" x="67.5" y="95.5449">New event</text><polygon fill="#A80036" points="401.5,125.2871,411.5,129.2871,401.5,133.2871,405.5,129.2871" style="stroke: #A80036; stroke-width: 1.0;"/><line style="stroke: #A80036; stroke-width: 1.0;" x1="195.5" x2="407.5" y1="129.2871" y2="129.2871"/><text fill="#000000" font-family="sans-serif" font-size="13" lengthAdjust="spacingAndGlyphs" textLength="56" x="202.5" y="124.8555">Get rules</text><polygon fill="#A80036" points="206.5,154.5977,196.5,158.5977,206.5,162.5977,202.5,158.5977" style="stroke: #A80036; stroke-width: 1.0;"/><line style="stroke: #A80036; stroke-width: 1.0;" x1="200.5" x2="417.5" y1="158.5977" y2="158.5977"/><text fill="#000000" font-family="sans-serif" font-size="13" lengthAdjust="spacingAndGlyphs" textLength="76" x="212.5" y="154.166">Return rules</text><line style="stroke: #A80036; stroke-width: 1.0;" x1="195.5" x2="237.5" y1="188.2188" y2="188.2188"/><line style="stroke: #A80036; stroke-width: 1.0;" x1="237.5" x2="237.5" y1="188.2188" y2="201.2188"/><line style="stroke: #A80036; stroke-width: 1.0;" x1="196.5" x2="237.5" y1="201.2188" y2="201.2188"/><polygon fill="#A80036" points="206.5,197.2188,196.5,201.2188,206.5,205.2188,202.5,201.2188" style="stroke: #A80036; stroke-width: 1.0;"/><text fill="#000000" font-family="sans-serif" font-size="13" lengthAdjust="spacingAndGlyphs" textLength="204" x="202.5" y="183.4766">Process event according to rules</text><polygon fill="#A80036" points="71.5,226.2188,61.5,230.2188,71.5,234.2188,67.5,230.2188" style="stroke: #A80036; stroke-width: 1.0;"/><line style="stroke: #A80036; stroke-width: 1.0;" x1="65.5" x2="189.5" y1="230.2188" y2="230.2188"/><text fill="#000000" font-family="sans-serif" font-size="13" lengthAdjust="spacingAndGlyphs" textLength="101" x="77.5" y="225.7871">Processed event</text></g></svg>