<?xml version="1.0" encoding="UTF-8" standalone="no"?>
<!DOCTYPE svg PUBLIC "-//W3C//DTD SVG 1.1//EN"
 "http://www.w3.org/Graphics/SVG/1.1/DTD/svg11.dtd">
<!-- Generated by graphviz version 2.38.0 (20140413.2041)
 -->
<!-- Title: %3 Pages: 1 -->
<svg width="134pt" height="188pt"
 viewBox="0.00 0.00 134.00 188.00" xmlns="http://www.w3.org/2000/svg" xmlns:xlink="http://www.w3.org/1999/xlink">
<g id="graph0" class="graph" transform="scale(1 1) rotate(0) translate(4 184)">
<title>%3</title>
<polygon fill="white" stroke="none" points="-4,4 -4,-184 130,-184 130,4 -4,4"/>
<!-- a -->
<g id="node1" class="node"><title>a</title>
<ellipse fill="none" stroke="black" cx="99" cy="-162" rx="27" ry="18"/>
<text text-anchor="middle" x="99" y="-157.8" font-family="Times,serif" font-size="14.00">a</text>
</g>
<!-- b -->
<g id="node2" class="node"><title>b</title>
<ellipse fill="none" stroke="black" cx="44" cy="-90" rx="27" ry="18"/>
<text text-anchor="middle" x="44" y="-85.8" font-family="Times,serif" font-size="14.00">b</text>
</g>
<!-- a&#45;&gt;b -->
<g id="edge1" class="edge"><title>a&#45;&gt;b</title>
<path fill="none" stroke="black" d="M87.0658,-145.811C79.7864,-136.546 70.3374,-124.52 62.1456,-114.094"/>
<polygon fill="black" stroke="black" points="64.8413,-111.86 55.9109,-106.159 59.337,-116.185 64.8413,-111.86"/>
</g>
<!-- c -->
<g id="node3" class="node"><title>c</title>
<ellipse fill="none" stroke="black" cx="71" cy="-18" rx="27" ry="18"/>
<text text-anchor="middle" x="71" y="-13.8" font-family="Times,serif" font-size="14.00">c</text>
</g>
<!-- b&#45;&gt;c -->
<g id="edge2" class="edge"><title>b&#45;&gt;c</title>
<path fill="none" stroke="black" d="M50.3986,-72.411C53.5136,-64.3352 57.3337,-54.4312 60.8346,-45.3547"/>
<polygon fill="black" stroke="black" points="64.1265,-46.5458 64.4597,-35.9562 57.5955,-44.0267 64.1265,-46.5458"/>
</g>
<!-- c&#45;&gt;a -->
<g id="edge3" class="edge"><title>c&#45;&gt;a</title>
<path fill="none" stroke="black" d="M74.3894,-36.1893C79.1892,-60.5311 88.0129,-105.28 93.6876,-134.059"/>
<polygon fill="black" stroke="black" points="90.254,-134.738 95.6225,-143.871 97.1218,-133.383 90.254,-134.738"/>
</g>
<!-- d -->
<g id="node4" class="node"><title>d</title>
<ellipse fill="none" stroke="black" cx="27" cy="-162" rx="27" ry="18"/>
<text text-anchor="middle" x="27" y="-157.8" font-family="Times,serif" font-size="14.00">d</text>
</g>
<!-- d&#45;&gt;b -->
<g id="edge4" class="edge"><title>d&#45;&gt;b</title>
<path fill="none" stroke="black" d="M31.1152,-144.055C33.0081,-136.261 35.3004,-126.822 37.4237,-118.079"/>
<polygon fill="black" stroke="black" points="40.8457,-118.819 39.8046,-108.275 34.0434,-117.167 40.8457,-118.819"/>
</g>
</g>
</svg>
