<?xml version="1.0" encoding="UTF-8" standalone="no"?>
<!DOCTYPE svg PUBLIC "-//W3C//DTD SVG 1.1//EN"
 "http://www.w3.org/Graphics/SVG/1.1/DTD/svg11.dtd">
<!-- Generated by graphviz version 2.38.0 (20140413.2041)
 -->
<!-- Title: Example Pages: 1 -->
<svg width="570pt" height="272pt"
 viewBox="0.00 0.00 569.98 272.00" xmlns="http://www.w3.org/2000/svg" xmlns:xlink="http://www.w3.org/1999/xlink">
<g id="graph0" class="graph" transform="scale(1 1) rotate(0) translate(4 268)">
<title>Example</title>
<polygon fill="white" stroke="none" points="-4,4 -4,-268 565.982,-268 565.982,4 -4,4"/>
<!-- A -->
<g id="node1" class="node"><title>A</title>
<ellipse fill="none" stroke="black" cx="175.156" cy="-246" rx="49.2774" ry="18"/>
<text text-anchor="middle" x="175.156" y="-241.8" font-family="Times,serif" font-size="14.00">web&#45;server</text>
</g>
<!-- B -->
<g id="node2" class="node"><title>B</title>
<ellipse fill="none" stroke="black" cx="175.156" cy="-132" rx="66.1821" ry="18"/>
<text text-anchor="middle" x="175.156" y="-127.8" font-family="Times,serif" font-size="14.00">event&#45;processor</text>
</g>
<!-- A&#45;&gt;B -->
<g id="edge1" class="edge"><title>A&#45;&gt;B</title>
<path fill="none" stroke="#00aa00" d="M175.156,-227.99C175.156,-210.063 175.156,-181.555 175.156,-160.442"/>
<polygon fill="#00aa00" stroke="#00aa00" points="178.656,-160.17 175.156,-150.17 171.656,-160.171 178.656,-160.17"/>
<text text-anchor="middle" x="287.177" y="-198.8" font-family="Times,serif" font-size="14.00">OK(pass=3/3</text>
<text text-anchor="middle" x="287.177" y="-184.8" font-family="Times,serif" font-size="14.00"> &#160;&#160;&#160;100%),</text>
<text text-anchor="middle" x="287.177" y="-170.8" font-family="Times,serif" font-size="14.00">Check(within=10s,ok=3,warn=0,fail=0)</text>
</g>
<!-- C -->
<g id="node3" class="node"><title>C</title>
<ellipse fill="none" stroke="black" cx="35.1561" cy="-18" rx="35.3129" ry="18"/>
<text text-anchor="middle" x="35.1561" y="-13.8" font-family="Times,serif" font-size="14.00">journal</text>
</g>
<!-- B&#45;&gt;C -->
<g id="edge3" class="edge"><title>B&#45;&gt;C</title>
<path fill="none" stroke="#aa0000" d="M115.954,-123.899C81.5255,-118.416 42.888,-109.458 32.3299,-96 21.425,-82.1001 22.5239,-62.0483 26.1435,-45.8917"/>
<polygon fill="#aa0000" stroke="#aa0000" points="29.6022,-46.5041 28.7853,-35.9408 22.8365,-44.7079 29.6022,-46.5041"/>
<text text-anchor="middle" x="161.569" y="-84.8" font-family="Times,serif" font-size="14.00">NOK(pass=1/4</text>
<text text-anchor="middle" x="161.569" y="-70.8" font-family="Times,serif" font-size="14.00"> &#160;&#160;&#160;25%),</text>
<text text-anchor="middle" x="161.569" y="-56.8" font-family="Times,serif" font-size="14.00">Check=(within=1000ms,ok=3,warn=1,fail=0)</text>
</g>
<!-- D -->
<g id="node4" class="node"><title>D</title>
<ellipse fill="none" stroke="black" cx="315.156" cy="-18" rx="40.5989" ry="18"/>
<text text-anchor="middle" x="315.156" y="-13.8" font-family="Times,serif" font-size="14.00">database</text>
</g>
<!-- B&#45;&gt;D -->
<g id="edge2" class="edge"><title>B&#45;&gt;D</title>
<path fill="none" stroke="#aaaa00" d="M236.154,-124.84C256.615,-119.934 278.047,-111.261 293.156,-96 306.155,-82.8702 311.586,-62.6228 313.804,-46.1853"/>
<polygon fill="#aaaa00" stroke="#aaaa00" points="317.306,-46.3521 314.845,-36.0469 310.342,-45.6372 317.306,-46.3521"/>
<text text-anchor="middle" x="437.069" y="-84.8" font-family="Times,serif" font-size="14.00">WARN(pass=4/5</text>
<text text-anchor="middle" x="437.069" y="-70.8" font-family="Times,serif" font-size="14.00"> &#160;&#160;&#160;80%),</text>
<text text-anchor="middle" x="437.069" y="-56.8" font-family="Times,serif" font-size="14.00">Check=(within=500ms,ok=3,warn=1,fail=2)</text>
</g>
</g>
</svg>
