<?xml version="1.0" encoding="UTF-8" standalone="no"?>
<!DOCTYPE svg PUBLIC "-//W3C//DTD SVG 1.1//EN"
 "http://www.w3.org/Graphics/SVG/1.1/DTD/svg11.dtd">
<!-- Generated by graphviz version 2.38.0 (20140413.2041)
 -->
<!-- Title: %3 Pages: 1 -->
<svg width="321pt" height="76pt"
 viewBox="0.00 0.00 320.62 76.00" xmlns="http://www.w3.org/2000/svg" xmlns:xlink="http://www.w3.org/1999/xlink">
<g id="graph0" class="graph" transform="scale(1 1) rotate(0) translate(4 72)">
<title>%3</title>
<polygon fill="white" stroke="none" points="-4,4 -4,-72 316.621,-72 316.621,4 -4,4"/>
<!-- A -->
<g id="node1" class="node"><title>A</title>
<ellipse fill="none" stroke="black" cx="27" cy="-18" rx="27" ry="18"/>
<text text-anchor="middle" x="27" y="-13.8" font-family="Times,serif" font-size="14.00">A</text>
</g>
<!-- B -->
<g id="node2" class="node"><title>B</title>
<ellipse fill="none" stroke="black" cx="156.311" cy="-50" rx="27" ry="18"/>
<text text-anchor="middle" x="156.311" y="-45.8" font-family="Times,serif" font-size="14.00">B</text>
</g>
<!-- A&#45;&gt;B -->
<g id="edge1" class="edge"><title>A&#45;&gt;B</title>
<path fill="none" stroke="black" d="M52.5468,-24.1699C72.0084,-29.0617 99.433,-35.955 121.057,-41.3901"/>
<polygon fill="black" stroke="black" points="120.288,-44.8056 130.839,-43.849 121.994,-38.0168 120.288,-44.8056"/>
</g>
<!-- C -->
<g id="node3" class="node"><title>C</title>
<ellipse fill="none" stroke="black" cx="285.621" cy="-18" rx="27" ry="18"/>
<text text-anchor="middle" x="285.621" y="-13.8" font-family="Times,serif" font-size="14.00">C</text>
</g>
<!-- A&#45;&gt;C -->
<g id="edge3" class="edge"><title>A&#45;&gt;C</title>
<path fill="none" stroke="black" stroke-dasharray="5,2" d="M53.3543,-13.5411C64.8123,-11.7423 78.5466,-9.88504 91,-9 148.908,-4.88462 163.713,-4.88462 221.621,-9 230.572,-9.63612 240.185,-10.7745 249.138,-12.0324"/>
<polygon fill="black" stroke="black" points="248.86,-15.5296 259.267,-13.5411 249.892,-8.60594 248.86,-15.5296"/>
<text text-anchor="middle" x="156.311" y="-11.8" font-family="Times,serif" font-size="14.00">an implicit dependency</text>
</g>
<!-- B&#45;&gt;C -->
<g id="edge2" class="edge"><title>B&#45;&gt;C</title>
<path fill="none" stroke="black" d="M181.857,-43.8301C201.319,-38.9383 228.744,-32.045 250.367,-26.6099"/>
<polygon fill="black" stroke="black" points="251.305,-29.9832 260.15,-24.151 249.598,-23.1944 251.305,-29.9832"/>
</g>
</g>
</svg>
