<?xml version="1.0" encoding="UTF-8" standalone="no"?>
<!DOCTYPE svg PUBLIC "-//W3C//DTD SVG 1.1//EN"
 "http://www.w3.org/Graphics/SVG/1.1/DTD/svg11.dtd">
<!-- Generated by graphviz version 2.38.0 (20140413.2041)
 -->
<!-- Title: %3 Pages: 1 -->
<svg width="422pt" height="125pt"
 viewBox="0.00 0.00 422.00 125.00" xmlns="http://www.w3.org/2000/svg" xmlns:xlink="http://www.w3.org/1999/xlink">
<g id="graph0" class="graph" transform="scale(1 1) rotate(0) translate(4 121)">
<title>%3</title>
<polygon fill="white" stroke="none" points="-4,4 -4,-121 418,-121 418,4 -4,4"/>
<!-- A -->
<g id="node1" class="node"><title>A</title>
<ellipse fill="none" stroke="black" cx="27" cy="-45" rx="27" ry="18"/>
<text text-anchor="middle" x="27" y="-40.8" font-family="Times,serif" font-size="14.00">A</text>
</g>
<!-- B -->
<g id="node2" class="node"><title>B</title>
<ellipse fill="none" stroke="black" cx="117" cy="-45" rx="27" ry="18"/>
<text text-anchor="middle" x="117" y="-40.8" font-family="Times,serif" font-size="14.00">B</text>
</g>
<!-- A&#45;&gt;B -->
<g id="edge1" class="edge"><title>A&#45;&gt;B</title>
<path fill="none" stroke="black" d="M54.4029,-45C62.3932,-45 71.3106,-45 79.8241,-45"/>
<polygon fill="black" stroke="black" points="79.919,-48.5001 89.919,-45 79.919,-41.5001 79.919,-48.5001"/>
</g>
<!-- C -->
<g id="node3" class="node"><title>C</title>
<ellipse fill="none" stroke="black" cx="207" cy="-72" rx="27" ry="18"/>
<text text-anchor="middle" x="207" y="-67.8" font-family="Times,serif" font-size="14.00">C</text>
</g>
<!-- B&#45;&gt;C -->
<g id="edge2" class="edge"><title>B&#45;&gt;C</title>
<path fill="none" stroke="black" d="M142.046,-52.3779C151.435,-55.2586 162.362,-58.6112 172.5,-61.7215"/>
<polygon fill="black" stroke="black" points="171.701,-65.1373 182.287,-64.7245 173.754,-58.4452 171.701,-65.1373"/>
</g>
<!-- I -->
<g id="node6" class="node"><title>I</title>
<ellipse fill="none" stroke="black" cx="207" cy="-18" rx="27" ry="18"/>
<text text-anchor="middle" x="207" y="-13.8" font-family="Times,serif" font-size="14.00">I</text>
</g>
<!-- B&#45;&gt;I -->
<g id="edge5" class="edge"><title>B&#45;&gt;I</title>
<path fill="none" stroke="black" d="M142.046,-37.6221C151.435,-34.7414 162.362,-31.3888 172.5,-28.2785"/>
<polygon fill="black" stroke="black" points="173.754,-31.5548 182.287,-25.2755 171.701,-24.8627 173.754,-31.5548"/>
</g>
<!-- S -->
<g id="node4" class="node"><title>S</title>
<ellipse fill="none" stroke="black" cx="297" cy="-99" rx="27" ry="18"/>
<text text-anchor="middle" x="297" y="-94.8" font-family="Times,serif" font-size="14.00">S</text>
</g>
<!-- C&#45;&gt;S -->
<g id="edge3" class="edge"><title>C&#45;&gt;S</title>
<path fill="none" stroke="black" d="M232.046,-79.3779C241.435,-82.2586 252.362,-85.6112 262.5,-88.7215"/>
<polygon fill="black" stroke="black" points="261.701,-92.1373 272.287,-91.7245 263.754,-85.4452 261.701,-92.1373"/>
</g>
<!-- E -->
<g id="node5" class="node"><title>E</title>
<ellipse fill="none" stroke="black" cx="297" cy="-45" rx="27" ry="18"/>
<text text-anchor="middle" x="297" y="-40.8" font-family="Times,serif" font-size="14.00">E</text>
</g>
<!-- C&#45;&gt;E -->
<g id="edge4" class="edge"><title>C&#45;&gt;E</title>
<path fill="none" stroke="black" d="M232.046,-64.6221C241.435,-61.7414 252.362,-58.3888 262.5,-55.2785"/>
<polygon fill="black" stroke="black" points="263.754,-58.5548 272.287,-52.2755 261.701,-51.8627 263.754,-58.5548"/>
</g>
<!-- P -->
<g id="node7" class="node"><title>P</title>
<ellipse fill="none" stroke="black" cx="387" cy="-45" rx="27" ry="18"/>
<text text-anchor="middle" x="387" y="-40.8" font-family="Times,serif" font-size="14.00">P</text>
</g>
<!-- E&#45;&gt;P -->
<g id="edge6" class="edge"><title>E&#45;&gt;P</title>
<path fill="none" stroke="black" d="M324.403,-45C332.393,-45 341.311,-45 349.824,-45"/>
<polygon fill="black" stroke="black" points="349.919,-48.5001 359.919,-45 349.919,-41.5001 349.919,-48.5001"/>
</g>
</g>
</svg>
