<?xml version="1.0" encoding="UTF-8" standalone="no"?>
<!DOCTYPE svg PUBLIC "-//W3C//DTD SVG 1.1//EN"
 "http://www.w3.org/Graphics/SVG/1.1/DTD/svg11.dtd">
<!-- Generated by graphviz version 2.38.0 (20140413.2041)
 -->
<!-- Title: %3 Pages: 1 -->
<svg width="422pt" height="135pt"
 viewBox="0.00 0.00 422.00 134.53" xmlns="http://www.w3.org/2000/svg" xmlns:xlink="http://www.w3.org/1999/xlink">
<g id="graph0" class="graph" transform="scale(1 1) rotate(0) translate(4 130.528)">
<title>%3</title>
<polygon fill="white" stroke="none" points="-4,4 -4,-130.528 418,-130.528 418,4 -4,4"/>
<!-- A -->
<g id="node1" class="node"><title>A</title>
<ellipse fill="none" stroke="black" cx="27" cy="-27.5277" rx="27" ry="18"/>
<text text-anchor="middle" x="27" y="-23.3277" font-family="Times,serif" font-size="14.00">A</text>
</g>
<!-- B -->
<g id="node2" class="node"><title>B</title>
<ellipse fill="none" stroke="black" cx="117" cy="-92.5277" rx="27" ry="18"/>
<text text-anchor="middle" x="117" y="-88.3277" font-family="Times,serif" font-size="14.00">B</text>
</g>
<!-- A&#45;&gt;B -->
<g id="edge1" class="edge"><title>A&#45;&gt;B</title>
<path fill="none" stroke="black" d="M45.8081,-40.6815C58.4516,-50.0204 75.6317,-62.7102 89.8302,-73.1978"/>
<polygon fill="black" stroke="black" points="88.0952,-76.2675 98.2184,-79.3936 92.2542,-70.6369 88.0952,-76.2675"/>
</g>
<!-- S -->
<g id="node4" class="node"><title>S</title>
<ellipse fill="none" stroke="black" cx="297" cy="-35.5277" rx="27" ry="18"/>
<text text-anchor="middle" x="297" y="-31.3277" font-family="Times,serif" font-size="14.00">S</text>
</g>
<!-- A&#45;&gt;S -->
<g id="edge9" class="edge"><title>A&#45;&gt;S</title>
<path fill="none" stroke="black" stroke-dasharray="5,2" d="M54.0495,-26.459C93.1708,-25.0958 169.401,-23.3772 234,-27.5277 242.547,-28.0769 251.716,-29.0477 260.312,-30.1279"/>
<polygon fill="black" stroke="black" points="260.056,-33.6248 270.431,-31.479 260.982,-26.6863 260.056,-33.6248"/>
</g>
<!-- I -->
<g id="node6" class="node"><title>I</title>
<ellipse fill="none" stroke="black" cx="207" cy="-54.5277" rx="27" ry="18"/>
<text text-anchor="middle" x="207" y="-50.3277" font-family="Times,serif" font-size="14.00">I</text>
</g>
<!-- A&#45;&gt;I -->
<g id="edge7" class="edge"><title>A&#45;&gt;I</title>
<path fill="none" stroke="black" stroke-dasharray="5,2" d="M53.5031,-31.3962C84.1685,-36.0477 135.819,-43.8824 170.402,-49.128"/>
<polygon fill="black" stroke="black" points="170.132,-52.6271 180.544,-50.6665 171.182,-45.7063 170.132,-52.6271"/>
</g>
<!-- P -->
<g id="node7" class="node"><title>P</title>
<ellipse fill="none" stroke="black" cx="387" cy="-34.5277" rx="27" ry="18"/>
<text text-anchor="middle" x="387" y="-30.3277" font-family="Times,serif" font-size="14.00">P</text>
</g>
<!-- A&#45;&gt;P -->
<g id="edge8" class="edge"><title>A&#45;&gt;P</title>
<path fill="none" stroke="black" stroke-dasharray="5,2" d="M52.8516,-21.6053C104.109,-10.3337 225.053,11.3794 324,-8.52773 334.926,-10.7259 346.327,-14.9014 356.328,-19.2734"/>
<polygon fill="black" stroke="black" points="354.881,-22.4599 365.427,-23.4671 357.811,-16.1027 354.881,-22.4599"/>
</g>
<!-- C -->
<g id="node3" class="node"><title>C</title>
<ellipse fill="none" stroke="black" cx="207" cy="-108.528" rx="27" ry="18"/>
<text text-anchor="middle" x="207" y="-104.328" font-family="Times,serif" font-size="14.00">C</text>
</g>
<!-- B&#45;&gt;C -->
<g id="edge2" class="edge"><title>B&#45;&gt;C</title>
<path fill="none" stroke="black" d="M143.453,-97.1556C151.936,-98.6979 161.544,-100.445 170.64,-102.099"/>
<polygon fill="black" stroke="black" points="170.139,-105.565 180.604,-103.91 171.391,-98.6778 170.139,-105.565"/>
</g>
<!-- B&#45;&gt;I -->
<g id="edge5" class="edge"><title>B&#45;&gt;I</title>
<path fill="none" stroke="black" d="M140.206,-82.9387C150.628,-78.4383 163.233,-72.9955 174.609,-68.0831"/>
<polygon fill="black" stroke="black" points="176.008,-71.2913 183.801,-64.1137 173.233,-64.8649 176.008,-71.2913"/>
</g>
<!-- C&#45;&gt;S -->
<g id="edge3" class="edge"><title>C&#45;&gt;S</title>
<path fill="none" stroke="black" d="M224.552,-94.797C237.743,-83.8547 256.413,-68.3667 271.36,-55.9674"/>
<polygon fill="black" stroke="black" points="273.761,-58.5236 279.223,-49.4451 269.292,-53.136 273.761,-58.5236"/>
</g>
<!-- E -->
<g id="node5" class="node"><title>E</title>
<ellipse fill="none" stroke="black" cx="297" cy="-98.5277" rx="27" ry="18"/>
<text text-anchor="middle" x="297" y="-94.3277" font-family="Times,serif" font-size="14.00">E</text>
</g>
<!-- C&#45;&gt;E -->
<g id="edge4" class="edge"><title>C&#45;&gt;E</title>
<path fill="none" stroke="black" d="M233.927,-105.581C242.162,-104.646 251.42,-103.594 260.223,-102.593"/>
<polygon fill="black" stroke="black" points="260.718,-106.06 270.258,-101.453 259.927,-99.1045 260.718,-106.06"/>
</g>
<!-- E&#45;&gt;P -->
<g id="edge6" class="edge"><title>E&#45;&gt;P</title>
<path fill="none" stroke="black" d="M315.808,-85.5764C328.452,-76.3811 345.632,-63.8865 359.83,-53.5603"/>
<polygon fill="black" stroke="black" points="362.19,-56.1722 368.218,-47.4598 358.072,-50.511 362.19,-56.1722"/>
</g>
</g>
</svg>
