<?xml version="1.0" encoding="UTF-8" standalone="no"?>
<!DOCTYPE svg PUBLIC "-//W3C//DTD SVG 1.1//EN"
 "http://www.w3.org/Graphics/SVG/1.1/DTD/svg11.dtd">
<!-- Generated by graphviz version 2.38.0 (20140413.2041)
 -->
<!-- Title: %3 Pages: 1 -->
<svg width="512pt" height="190pt"
 viewBox="0.00 0.00 512.00 190.00" xmlns="http://www.w3.org/2000/svg" xmlns:xlink="http://www.w3.org/1999/xlink">
<g id="graph0" class="graph" transform="scale(1 1) rotate(0) translate(4 186)">
<title>%3</title>
<polygon fill="white" stroke="none" points="-4,4 -4,-186 508,-186 508,4 -4,4"/>
<!-- A -->
<g id="node1" class="node"><title>A</title>
<ellipse fill="none" stroke="black" cx="27" cy="-87" rx="27" ry="18"/>
<text text-anchor="middle" x="27" y="-82.8" font-family="Times,serif" font-size="14.00">A</text>
</g>
<!-- B -->
<g id="node2" class="node"><title>B</title>
<ellipse fill="none" stroke="black" cx="117" cy="-110" rx="27" ry="18"/>
<text text-anchor="middle" x="117" y="-105.8" font-family="Times,serif" font-size="14.00">B</text>
</g>
<!-- A&#45;&gt;B -->
<g id="edge1" class="edge"><title>A&#45;&gt;B</title>
<path fill="none" stroke="black" d="M52.5129,-93.4068C61.5717,-95.7744 72.0115,-98.503 81.775,-101.055"/>
<polygon fill="black" stroke="black" points="81.0585,-104.485 91.6186,-103.628 82.8286,-97.7126 81.0585,-104.485"/>
</g>
<!-- S -->
<g id="node4" class="node"><title>S</title>
<ellipse fill="none" stroke="black" cx="297" cy="-164" rx="27" ry="18"/>
<text text-anchor="middle" x="297" y="-159.8" font-family="Times,serif" font-size="14.00">S</text>
</g>
<!-- A&#45;&gt;S -->
<g id="edge12" class="edge"><title>A&#45;&gt;S</title>
<path fill="none" stroke="black" stroke-dasharray="5,2" d="M42.224,-102.36C53.8844,-113.909 71.4403,-129.055 90,-137 145.787,-160.883 217.221,-165.036 259.641,-165.076"/>
<polygon fill="black" stroke="black" points="259.797,-168.575 269.773,-165.008 259.75,-161.576 259.797,-168.575"/>
</g>
<!-- I -->
<g id="node6" class="node"><title>I</title>
<ellipse fill="none" stroke="black" cx="207" cy="-18" rx="27" ry="18"/>
<text text-anchor="middle" x="207" y="-13.8" font-family="Times,serif" font-size="14.00">I</text>
</g>
<!-- A&#45;&gt;I -->
<g id="edge10" class="edge"><title>A&#45;&gt;I</title>
<path fill="none" stroke="black" stroke-dasharray="5,2" d="M46.2972,-74.2944C58.2897,-66.425 74.5528,-56.5967 90,-50 116.275,-38.7791 147.583,-30.4145 171.047,-25.0568"/>
<polygon fill="black" stroke="black" points="171.898,-28.4531 180.907,-22.8762 170.387,-21.6182 171.898,-28.4531"/>
</g>
<!-- P -->
<g id="node7" class="node"><title>P</title>
<ellipse fill="none" stroke="black" cx="387" cy="-87" rx="27" ry="18"/>
<text text-anchor="middle" x="387" y="-82.8" font-family="Times,serif" font-size="14.00">P</text>
</g>
<!-- A&#45;&gt;P -->
<g id="edge11" class="edge"><title>A&#45;&gt;P</title>
<path fill="none" stroke="black" stroke-dasharray="5,2" d="M53.9246,-84.9538C65.0265,-84.1744 78.1413,-83.3821 90,-83 193.946,-79.6504 220.054,-79.6504 324,-83 332.431,-83.2717 341.496,-83.7506 350.022,-84.2849"/>
<polygon fill="black" stroke="black" points="349.865,-87.7821 360.075,-84.9538 350.33,-80.7975 349.865,-87.7821"/>
</g>
<!-- C -->
<g id="node3" class="node"><title>C</title>
<ellipse fill="none" stroke="black" cx="207" cy="-110" rx="27" ry="18"/>
<text text-anchor="middle" x="207" y="-105.8" font-family="Times,serif" font-size="14.00">C</text>
</g>
<!-- B&#45;&gt;C -->
<g id="edge2" class="edge"><title>B&#45;&gt;C</title>
<path fill="none" stroke="black" d="M144.403,-110C152.393,-110 161.311,-110 169.824,-110"/>
<polygon fill="black" stroke="black" points="169.919,-113.5 179.919,-110 169.919,-106.5 169.919,-113.5"/>
</g>
<!-- B&#45;&gt;I -->
<g id="edge5" class="edge"><title>B&#45;&gt;I</title>
<path fill="none" stroke="black" d="M132.531,-94.8081C146.756,-79.9374 168.584,-57.1168 184.755,-40.2108"/>
<polygon fill="black" stroke="black" points="187.356,-42.555 191.739,-32.9092 182.297,-37.7164 187.356,-42.555"/>
</g>
<!-- C&#45;&gt;S -->
<g id="edge3" class="edge"><title>C&#45;&gt;S</title>
<path fill="none" stroke="black" d="M227.53,-121.984C239.379,-129.255 254.699,-138.656 267.842,-146.721"/>
<polygon fill="black" stroke="black" points="266.171,-149.802 276.525,-152.049 269.832,-143.836 266.171,-149.802"/>
</g>
<!-- E -->
<g id="node5" class="node"><title>E</title>
<ellipse fill="none" stroke="black" cx="297" cy="-110" rx="27" ry="18"/>
<text text-anchor="middle" x="297" y="-105.8" font-family="Times,serif" font-size="14.00">E</text>
</g>
<!-- C&#45;&gt;E -->
<g id="edge4" class="edge"><title>C&#45;&gt;E</title>
<path fill="none" stroke="black" d="M234.403,-110C242.393,-110 251.311,-110 259.824,-110"/>
<polygon fill="black" stroke="black" points="259.919,-113.5 269.919,-110 259.919,-106.5 259.919,-113.5"/>
</g>
<!-- X -->
<g id="node8" class="node"><title>X</title>
<ellipse fill="none" stroke="black" stroke-dasharray="1,5" cx="477" cy="-87" rx="27" ry="18"/>
<text text-anchor="middle" x="477" y="-82.8" font-family="Times,serif" font-size="14.00">S</text>
</g>
<!-- S&#45;&gt;X -->
<g id="edge9" class="edge"><title>S&#45;&gt;X</title>
<path fill="none" stroke="black" stroke-dasharray="1,5" d="M320.249,-154.439C343.608,-144.395 381.401,-128.124 414,-114 423.938,-109.694 434.764,-104.986 444.549,-100.724"/>
<polygon fill="black" stroke="black" points="446.145,-103.846 453.914,-96.6421 443.348,-97.429 446.145,-103.846"/>
</g>
<!-- E&#45;&gt;P -->
<g id="edge6" class="edge"><title>E&#45;&gt;P</title>
<path fill="none" stroke="black" d="M322.513,-103.593C331.572,-101.226 342.012,-98.497 351.775,-95.9452"/>
<polygon fill="black" stroke="black" points="352.829,-99.2874 361.619,-93.3724 351.058,-92.5149 352.829,-99.2874"/>
</g>
<!-- I&#45;&gt;X -->
<g id="edge7" class="edge"><title>I&#45;&gt;X</title>
<path fill="none" stroke="black" stroke-dasharray="1,5" d="M233.808,-21.4842C273.26,-27.2055 350.655,-39.9933 414,-60 424.495,-63.3149 435.619,-67.8228 445.502,-72.2055"/>
<polygon fill="black" stroke="black" points="444.353,-75.5283 454.904,-76.4975 447.26,-69.1605 444.353,-75.5283"/>
</g>
<!-- P&#45;&gt;X -->
<g id="edge8" class="edge"><title>P&#45;&gt;X</title>
<path fill="none" stroke="black" stroke-dasharray="1,5" d="M414.403,-87C422.393,-87 431.311,-87 439.824,-87"/>
<polygon fill="black" stroke="black" points="439.919,-90.5001 449.919,-87 439.919,-83.5001 439.919,-90.5001"/>
</g>
</g>
</svg>
